<mxfile host="app.diagrams.net" modified="2022-08-14T11:07:57.225Z" agent="5.0 (Macintosh; Intel Mac OS X 10_15_7) AppleWebKit/537.36 (KHTML, like Gecko) Chrome/103.0.5060.134 Safari/537.36" etag="r_e4AdLvQ9MPwwIL-9uu" version="20.2.3" type="github">
  <diagram id="OBwVd87PNqXVU-20cUN8" name="第 1 页">
    <mxGraphModel dx="1826" dy="794" grid="1" gridSize="10" guides="1" tooltips="1" connect="1" arrows="1" fold="1" page="0" pageScale="1" pageWidth="827" pageHeight="1169" math="0" shadow="0">
      <root>
        <mxCell id="0" />
        <mxCell id="1" parent="0" />
        <mxCell id="XJ9ibDvzPIqZy9BsVPSS-16" style="edgeStyle=orthogonalEdgeStyle;rounded=0;orthogonalLoop=1;jettySize=auto;html=1;" edge="1" parent="1" source="XJ9ibDvzPIqZy9BsVPSS-1" target="XJ9ibDvzPIqZy9BsVPSS-6">
          <mxGeometry relative="1" as="geometry" />
        </mxCell>
        <mxCell id="XJ9ibDvzPIqZy9BsVPSS-1" value="" style="outlineConnect=0;dashed=0;verticalLabelPosition=bottom;verticalAlign=top;align=center;html=1;shape=mxgraph.aws3.management_console;fillColor=#F58534;gradientColor=none;" vertex="1" parent="1">
          <mxGeometry x="-160" y="213.5" width="63" height="63" as="geometry" />
        </mxCell>
        <mxCell id="XJ9ibDvzPIqZy9BsVPSS-14" value="" style="outlineConnect=0;dashed=0;verticalLabelPosition=bottom;verticalAlign=top;align=center;html=1;shape=mxgraph.aws3.traditional_server;fillColor=#7D7C7C;gradientColor=none;" vertex="1" parent="1">
          <mxGeometry x="660" y="213.5" width="46.5" height="63" as="geometry" />
        </mxCell>
        <mxCell id="XJ9ibDvzPIqZy9BsVPSS-19" value="" style="group" vertex="1" connectable="0" parent="1">
          <mxGeometry x="182.75" y="170" width="327.25" height="150" as="geometry" />
        </mxCell>
        <mxCell id="XJ9ibDvzPIqZy9BsVPSS-6" value="" style="rounded=0;whiteSpace=wrap;html=1;dashed=1;" vertex="1" parent="XJ9ibDvzPIqZy9BsVPSS-19">
          <mxGeometry width="327.25" height="150" as="geometry" />
        </mxCell>
        <mxCell id="XJ9ibDvzPIqZy9BsVPSS-2" value="" style="outlineConnect=0;dashed=0;verticalLabelPosition=bottom;verticalAlign=top;align=center;html=1;shape=mxgraph.aws3.forums;fillColor=#F58534;gradientColor=none;" vertex="1" parent="XJ9ibDvzPIqZy9BsVPSS-19">
          <mxGeometry x="17.25" y="20.25" width="85.5" height="82.5" as="geometry" />
        </mxCell>
        <mxCell id="XJ9ibDvzPIqZy9BsVPSS-4" value="" style="outlineConnect=0;dashed=0;verticalLabelPosition=bottom;verticalAlign=top;align=center;html=1;shape=mxgraph.aws3.forums;fillColor=#F58534;gradientColor=none;" vertex="1" parent="XJ9ibDvzPIqZy9BsVPSS-19">
          <mxGeometry x="117.25" y="20.25" width="85.5" height="82.5" as="geometry" />
        </mxCell>
        <mxCell id="XJ9ibDvzPIqZy9BsVPSS-5" value="" style="outlineConnect=0;dashed=0;verticalLabelPosition=bottom;verticalAlign=top;align=center;html=1;shape=mxgraph.aws3.forums;fillColor=#F58534;gradientColor=none;" vertex="1" parent="XJ9ibDvzPIqZy9BsVPSS-19">
          <mxGeometry x="217.25" y="20.25" width="85.5" height="82.5" as="geometry" />
        </mxCell>
        <mxCell id="XJ9ibDvzPIqZy9BsVPSS-7" value="表现层" style="text;html=1;align=center;verticalAlign=middle;resizable=0;points=[];autosize=1;strokeColor=none;fillColor=none;" vertex="1" parent="XJ9ibDvzPIqZy9BsVPSS-19">
          <mxGeometry x="30" y="115" width="60" height="30" as="geometry" />
        </mxCell>
        <mxCell id="XJ9ibDvzPIqZy9BsVPSS-8" value="业务逻辑层" style="text;html=1;align=center;verticalAlign=middle;resizable=0;points=[];autosize=1;strokeColor=none;fillColor=none;" vertex="1" parent="XJ9ibDvzPIqZy9BsVPSS-19">
          <mxGeometry x="120" y="115" width="80" height="30" as="geometry" />
        </mxCell>
        <mxCell id="XJ9ibDvzPIqZy9BsVPSS-9" value="数据访问层" style="text;html=1;align=center;verticalAlign=middle;resizable=0;points=[];autosize=1;strokeColor=none;fillColor=none;" vertex="1" parent="XJ9ibDvzPIqZy9BsVPSS-19">
          <mxGeometry x="220" y="115" width="80" height="30" as="geometry" />
        </mxCell>
        <mxCell id="XJ9ibDvzPIqZy9BsVPSS-20" style="edgeStyle=orthogonalEdgeStyle;rounded=0;orthogonalLoop=1;jettySize=auto;html=1;entryX=0;entryY=0.5;entryDx=0;entryDy=0;entryPerimeter=0;" edge="1" parent="1" source="XJ9ibDvzPIqZy9BsVPSS-6" target="XJ9ibDvzPIqZy9BsVPSS-14">
          <mxGeometry relative="1" as="geometry" />
        </mxCell>
        <mxCell id="XJ9ibDvzPIqZy9BsVPSS-22" value="Tomcat" style="text;html=1;align=center;verticalAlign=middle;resizable=0;points=[];autosize=1;strokeColor=none;fillColor=none;fontSize=24;" vertex="1" parent="1">
          <mxGeometry x="182.75" y="130" width="100" height="40" as="geometry" />
        </mxCell>
        <mxCell id="XJ9ibDvzPIqZy9BsVPSS-23" value="单体架构" style="text;html=1;align=center;verticalAlign=middle;resizable=0;points=[];autosize=1;strokeColor=none;fillColor=none;fontSize=24;" vertex="1" parent="1">
          <mxGeometry x="-160" y="80" width="120" height="40" as="geometry" />
        </mxCell>
        <mxCell id="XJ9ibDvzPIqZy9BsVPSS-57" style="edgeStyle=orthogonalEdgeStyle;rounded=0;orthogonalLoop=1;jettySize=auto;html=1;entryX=0;entryY=0.5;entryDx=0;entryDy=0;entryPerimeter=0;fontSize=24;" edge="1" parent="1" source="XJ9ibDvzPIqZy9BsVPSS-25" target="XJ9ibDvzPIqZy9BsVPSS-55">
          <mxGeometry relative="1" as="geometry" />
        </mxCell>
        <mxCell id="XJ9ibDvzPIqZy9BsVPSS-25" value="" style="outlineConnect=0;dashed=0;verticalLabelPosition=bottom;verticalAlign=top;align=center;html=1;shape=mxgraph.aws3.management_console;fillColor=#F58534;gradientColor=none;" vertex="1" parent="1">
          <mxGeometry x="-160" y="630" width="63" height="63" as="geometry" />
        </mxCell>
        <mxCell id="XJ9ibDvzPIqZy9BsVPSS-37" value="" style="group" vertex="1" connectable="0" parent="1">
          <mxGeometry x="160" y="420" width="327.25" height="190" as="geometry" />
        </mxCell>
        <mxCell id="XJ9ibDvzPIqZy9BsVPSS-27" value="" style="group" vertex="1" connectable="0" parent="XJ9ibDvzPIqZy9BsVPSS-37">
          <mxGeometry y="40" width="327.25" height="150" as="geometry" />
        </mxCell>
        <mxCell id="XJ9ibDvzPIqZy9BsVPSS-28" value="" style="rounded=0;whiteSpace=wrap;html=1;dashed=1;" vertex="1" parent="XJ9ibDvzPIqZy9BsVPSS-27">
          <mxGeometry width="327.25" height="150" as="geometry" />
        </mxCell>
        <mxCell id="XJ9ibDvzPIqZy9BsVPSS-29" value="" style="outlineConnect=0;dashed=0;verticalLabelPosition=bottom;verticalAlign=top;align=center;html=1;shape=mxgraph.aws3.forums;fillColor=#F58534;gradientColor=none;" vertex="1" parent="XJ9ibDvzPIqZy9BsVPSS-27">
          <mxGeometry x="17.25" y="20.25" width="85.5" height="82.5" as="geometry" />
        </mxCell>
        <mxCell id="XJ9ibDvzPIqZy9BsVPSS-30" value="" style="outlineConnect=0;dashed=0;verticalLabelPosition=bottom;verticalAlign=top;align=center;html=1;shape=mxgraph.aws3.forums;fillColor=#F58534;gradientColor=none;" vertex="1" parent="XJ9ibDvzPIqZy9BsVPSS-27">
          <mxGeometry x="117.25" y="20.25" width="85.5" height="82.5" as="geometry" />
        </mxCell>
        <mxCell id="XJ9ibDvzPIqZy9BsVPSS-31" value="" style="outlineConnect=0;dashed=0;verticalLabelPosition=bottom;verticalAlign=top;align=center;html=1;shape=mxgraph.aws3.forums;fillColor=#F58534;gradientColor=none;" vertex="1" parent="XJ9ibDvzPIqZy9BsVPSS-27">
          <mxGeometry x="217.25" y="20.25" width="85.5" height="82.5" as="geometry" />
        </mxCell>
        <mxCell id="XJ9ibDvzPIqZy9BsVPSS-32" value="表现层" style="text;html=1;align=center;verticalAlign=middle;resizable=0;points=[];autosize=1;strokeColor=none;fillColor=none;" vertex="1" parent="XJ9ibDvzPIqZy9BsVPSS-27">
          <mxGeometry x="30" y="115" width="60" height="30" as="geometry" />
        </mxCell>
        <mxCell id="XJ9ibDvzPIqZy9BsVPSS-33" value="业务逻辑层" style="text;html=1;align=center;verticalAlign=middle;resizable=0;points=[];autosize=1;strokeColor=none;fillColor=none;" vertex="1" parent="XJ9ibDvzPIqZy9BsVPSS-27">
          <mxGeometry x="120" y="115" width="80" height="30" as="geometry" />
        </mxCell>
        <mxCell id="XJ9ibDvzPIqZy9BsVPSS-34" value="数据访问层" style="text;html=1;align=center;verticalAlign=middle;resizable=0;points=[];autosize=1;strokeColor=none;fillColor=none;" vertex="1" parent="XJ9ibDvzPIqZy9BsVPSS-27">
          <mxGeometry x="220" y="115" width="80" height="30" as="geometry" />
        </mxCell>
        <mxCell id="XJ9ibDvzPIqZy9BsVPSS-36" value="Tomcat" style="text;html=1;align=center;verticalAlign=middle;resizable=0;points=[];autosize=1;strokeColor=none;fillColor=none;fontSize=24;" vertex="1" parent="XJ9ibDvzPIqZy9BsVPSS-37">
          <mxGeometry width="100" height="40" as="geometry" />
        </mxCell>
        <mxCell id="XJ9ibDvzPIqZy9BsVPSS-38" value="" style="group" vertex="1" connectable="0" parent="1">
          <mxGeometry x="160" y="663" width="327.25" height="190" as="geometry" />
        </mxCell>
        <mxCell id="XJ9ibDvzPIqZy9BsVPSS-39" value="" style="group" vertex="1" connectable="0" parent="XJ9ibDvzPIqZy9BsVPSS-38">
          <mxGeometry y="40" width="327.25" height="150" as="geometry" />
        </mxCell>
        <mxCell id="XJ9ibDvzPIqZy9BsVPSS-40" value="" style="rounded=0;whiteSpace=wrap;html=1;dashed=1;" vertex="1" parent="XJ9ibDvzPIqZy9BsVPSS-39">
          <mxGeometry width="327.25" height="150" as="geometry" />
        </mxCell>
        <mxCell id="XJ9ibDvzPIqZy9BsVPSS-41" value="" style="outlineConnect=0;dashed=0;verticalLabelPosition=bottom;verticalAlign=top;align=center;html=1;shape=mxgraph.aws3.forums;fillColor=#F58534;gradientColor=none;" vertex="1" parent="XJ9ibDvzPIqZy9BsVPSS-39">
          <mxGeometry x="17.25" y="20.25" width="85.5" height="82.5" as="geometry" />
        </mxCell>
        <mxCell id="XJ9ibDvzPIqZy9BsVPSS-42" value="" style="outlineConnect=0;dashed=0;verticalLabelPosition=bottom;verticalAlign=top;align=center;html=1;shape=mxgraph.aws3.forums;fillColor=#F58534;gradientColor=none;" vertex="1" parent="XJ9ibDvzPIqZy9BsVPSS-39">
          <mxGeometry x="117.25" y="20.25" width="85.5" height="82.5" as="geometry" />
        </mxCell>
        <mxCell id="XJ9ibDvzPIqZy9BsVPSS-43" value="" style="outlineConnect=0;dashed=0;verticalLabelPosition=bottom;verticalAlign=top;align=center;html=1;shape=mxgraph.aws3.forums;fillColor=#F58534;gradientColor=none;" vertex="1" parent="XJ9ibDvzPIqZy9BsVPSS-39">
          <mxGeometry x="217.25" y="20.25" width="85.5" height="82.5" as="geometry" />
        </mxCell>
        <mxCell id="XJ9ibDvzPIqZy9BsVPSS-44" value="表现层" style="text;html=1;align=center;verticalAlign=middle;resizable=0;points=[];autosize=1;strokeColor=none;fillColor=none;" vertex="1" parent="XJ9ibDvzPIqZy9BsVPSS-39">
          <mxGeometry x="30" y="115" width="60" height="30" as="geometry" />
        </mxCell>
        <mxCell id="XJ9ibDvzPIqZy9BsVPSS-45" value="业务逻辑层" style="text;html=1;align=center;verticalAlign=middle;resizable=0;points=[];autosize=1;strokeColor=none;fillColor=none;" vertex="1" parent="XJ9ibDvzPIqZy9BsVPSS-39">
          <mxGeometry x="120" y="115" width="80" height="30" as="geometry" />
        </mxCell>
        <mxCell id="XJ9ibDvzPIqZy9BsVPSS-46" value="数据访问层" style="text;html=1;align=center;verticalAlign=middle;resizable=0;points=[];autosize=1;strokeColor=none;fillColor=none;" vertex="1" parent="XJ9ibDvzPIqZy9BsVPSS-39">
          <mxGeometry x="220" y="115" width="80" height="30" as="geometry" />
        </mxCell>
        <mxCell id="XJ9ibDvzPIqZy9BsVPSS-47" value="Tomcat" style="text;html=1;align=center;verticalAlign=middle;resizable=0;points=[];autosize=1;strokeColor=none;fillColor=none;fontSize=24;" vertex="1" parent="XJ9ibDvzPIqZy9BsVPSS-38">
          <mxGeometry width="100" height="40" as="geometry" />
        </mxCell>
        <mxCell id="XJ9ibDvzPIqZy9BsVPSS-49" value="" style="outlineConnect=0;dashed=0;verticalLabelPosition=bottom;verticalAlign=top;align=center;html=1;shape=mxgraph.aws3.traditional_server;fillColor=#7D7C7C;gradientColor=none;" vertex="1" parent="1">
          <mxGeometry x="630" y="630" width="46.5" height="63" as="geometry" />
        </mxCell>
        <mxCell id="XJ9ibDvzPIqZy9BsVPSS-51" style="edgeStyle=orthogonalEdgeStyle;rounded=0;orthogonalLoop=1;jettySize=auto;html=1;entryX=0;entryY=0.5;entryDx=0;entryDy=0;entryPerimeter=0;fontSize=24;" edge="1" parent="1" source="XJ9ibDvzPIqZy9BsVPSS-40" target="XJ9ibDvzPIqZy9BsVPSS-49">
          <mxGeometry relative="1" as="geometry" />
        </mxCell>
        <mxCell id="XJ9ibDvzPIqZy9BsVPSS-53" style="edgeStyle=orthogonalEdgeStyle;rounded=0;orthogonalLoop=1;jettySize=auto;html=1;entryX=0;entryY=0.5;entryDx=0;entryDy=0;entryPerimeter=0;fontSize=24;" edge="1" parent="1" source="XJ9ibDvzPIqZy9BsVPSS-28" target="XJ9ibDvzPIqZy9BsVPSS-49">
          <mxGeometry relative="1" as="geometry" />
        </mxCell>
        <mxCell id="XJ9ibDvzPIqZy9BsVPSS-58" style="edgeStyle=orthogonalEdgeStyle;rounded=0;orthogonalLoop=1;jettySize=auto;html=1;entryX=0;entryY=0.5;entryDx=0;entryDy=0;fontSize=24;" edge="1" parent="1" source="XJ9ibDvzPIqZy9BsVPSS-55" target="XJ9ibDvzPIqZy9BsVPSS-28">
          <mxGeometry relative="1" as="geometry" />
        </mxCell>
        <mxCell id="XJ9ibDvzPIqZy9BsVPSS-59" style="edgeStyle=orthogonalEdgeStyle;rounded=0;orthogonalLoop=1;jettySize=auto;html=1;fontSize=24;" edge="1" parent="1" source="XJ9ibDvzPIqZy9BsVPSS-55" target="XJ9ibDvzPIqZy9BsVPSS-40">
          <mxGeometry relative="1" as="geometry" />
        </mxCell>
        <mxCell id="XJ9ibDvzPIqZy9BsVPSS-60" value="集群架构" style="text;html=1;align=center;verticalAlign=middle;resizable=0;points=[];autosize=1;strokeColor=none;fillColor=none;fontSize=24;" vertex="1" parent="1">
          <mxGeometry x="-160" y="440" width="120" height="40" as="geometry" />
        </mxCell>
        <mxCell id="XJ9ibDvzPIqZy9BsVPSS-63" value="垂直化架构" style="text;html=1;align=center;verticalAlign=middle;resizable=0;points=[];autosize=1;strokeColor=none;fillColor=none;fontSize=24;" vertex="1" parent="1">
          <mxGeometry x="-170" y="920" width="140" height="40" as="geometry" />
        </mxCell>
        <mxCell id="XJ9ibDvzPIqZy9BsVPSS-71" style="edgeStyle=orthogonalEdgeStyle;rounded=0;orthogonalLoop=1;jettySize=auto;html=1;entryX=0.5;entryY=0;entryDx=0;entryDy=0;entryPerimeter=0;fontSize=24;" edge="1" parent="1" source="XJ9ibDvzPIqZy9BsVPSS-64" target="XJ9ibDvzPIqZy9BsVPSS-69">
          <mxGeometry relative="1" as="geometry" />
        </mxCell>
        <mxCell id="XJ9ibDvzPIqZy9BsVPSS-64" value="" style="outlineConnect=0;dashed=0;verticalLabelPosition=bottom;verticalAlign=top;align=center;html=1;shape=mxgraph.aws3.management_console;fillColor=#F58534;gradientColor=none;" vertex="1" parent="1">
          <mxGeometry x="163.5" y="920" width="63" height="63" as="geometry" />
        </mxCell>
        <mxCell id="XJ9ibDvzPIqZy9BsVPSS-66" value="" style="group" vertex="1" connectable="0" parent="1">
          <mxGeometry x="-25" y="611.5" width="90" height="148.5" as="geometry" />
        </mxCell>
        <mxCell id="XJ9ibDvzPIqZy9BsVPSS-55" value="" style="html=1;whiteSpace=wrap;shape=isoCube2;backgroundOutline=1;isoAngle=15;dashed=1;fontSize=24;fillColor=#d5e8d4;strokeColor=#82b366;" vertex="1" parent="XJ9ibDvzPIqZy9BsVPSS-66">
          <mxGeometry width="90" height="100" as="geometry" />
        </mxCell>
        <mxCell id="XJ9ibDvzPIqZy9BsVPSS-56" value="Nginx" style="text;html=1;align=center;verticalAlign=middle;resizable=0;points=[];autosize=1;strokeColor=none;fillColor=none;fontSize=24;" vertex="1" parent="XJ9ibDvzPIqZy9BsVPSS-66">
          <mxGeometry x="5" y="108.5" width="80" height="40" as="geometry" />
        </mxCell>
        <mxCell id="XJ9ibDvzPIqZy9BsVPSS-68" value="" style="group" vertex="1" connectable="0" parent="1">
          <mxGeometry x="150" y="1040" width="90" height="148.5" as="geometry" />
        </mxCell>
        <mxCell id="XJ9ibDvzPIqZy9BsVPSS-69" value="" style="html=1;whiteSpace=wrap;shape=isoCube2;backgroundOutline=1;isoAngle=15;dashed=1;fontSize=24;fillColor=#d5e8d4;strokeColor=#82b366;" vertex="1" parent="XJ9ibDvzPIqZy9BsVPSS-68">
          <mxGeometry width="90" height="100" as="geometry" />
        </mxCell>
        <mxCell id="XJ9ibDvzPIqZy9BsVPSS-70" value="Nginx" style="text;html=1;align=center;verticalAlign=middle;resizable=0;points=[];autosize=1;strokeColor=none;fillColor=none;fontSize=24;" vertex="1" parent="XJ9ibDvzPIqZy9BsVPSS-68">
          <mxGeometry x="5" y="108.5" width="80" height="40" as="geometry" />
        </mxCell>
      </root>
    </mxGraphModel>
  </diagram>
</mxfile>
